<svg width="1640" height="1640" viewBox="0 0 1640 1640" fill="none" xmlns="http://www.w3.org/2000/svg">
<path fill-rule="evenodd" clip-rule="evenodd" d="M766.062 252.882C766.062 230.14 757.028 208.329 740.946 192.248C724.865 176.167 703.054 167.132 680.312 167.132H212.585C165.226 167.132 126.835 205.524 126.835 252.882C126.835 331.743 126.835 466.724 126.835 545.586C126.835 568.328 135.869 590.139 151.95 606.22C168.031 622.301 189.843 631.335 212.585 631.335C291.234 631.335 422.96 631.335 479.074 631.335C502.455 631.335 524.821 621.789 540.995 604.906L593.034 550.587C600.387 542.913 610.552 538.574 621.179 538.573H680.312C727.671 538.573 766.062 500.181 766.062 452.822V252.882ZM719.289 252.882V452.823C719.289 474.349 701.839 491.799 680.313 491.8H621.179C597.8 491.801 575.434 501.347 559.26 518.229L507.221 572.549C499.868 580.224 489.702 584.563 479.075 584.563H212.585C202.247 584.563 192.333 580.456 185.024 573.146C177.714 565.837 173.608 555.923 173.608 545.586V252.882C173.608 231.356 191.057 213.905 212.583 213.905C212.586 213.905 680.311 213.905 680.311 213.905C690.65 213.905 700.564 218.012 707.873 225.321C715.182 232.631 719.289 242.544 719.289 252.882ZM232.037 555.142H317.272C330.179 555.142 340.658 544.664 340.658 531.756C340.658 518.849 330.179 508.37 317.272 508.37H232.037C219.13 508.37 208.651 518.849 208.651 531.756C208.651 544.664 219.13 555.142 232.037 555.142Z" fill="black" fill-opacity="0.5"/>
<path fill-rule="evenodd" clip-rule="evenodd" d="M111.569 726.642V286.77C111.569 273.863 101.09 263.384 88.1826 263.384C75.2748 263.384 64.7963 273.863 64.7963 286.77V726.642C64.7963 739.55 75.2748 750.029 88.1826 750.029C101.09 750.029 111.569 739.55 111.569 726.642ZM587.996 167.132H212.587C165.229 167.132 126.838 205.524 126.838 252.882C126.838 331.743 126.838 466.724 126.838 545.586C126.838 568.328 135.872 590.139 151.953 606.22C168.034 622.301 189.845 631.335 212.587 631.335C291.237 631.335 422.963 631.335 479.077 631.335C502.458 631.335 524.824 621.789 540.998 604.906L593.037 550.587C600.39 542.913 610.555 538.574 621.182 538.573H680.315C727.673 538.573 766.064 500.182 766.065 452.823V353.291C766.065 340.384 755.585 329.905 742.678 329.905C729.771 329.905 719.292 340.384 719.292 353.291V452.822C719.291 474.35 701.842 491.799 680.316 491.8H621.182C597.803 491.801 575.437 501.347 559.263 518.229L507.224 572.549C499.871 580.224 489.705 584.563 479.078 584.563H212.587C202.25 584.563 192.336 580.456 185.027 573.146C177.717 565.837 173.61 555.923 173.61 545.586V252.882C173.61 231.356 191.06 213.905 212.586 213.905C212.588 213.905 587.996 213.905 587.996 213.905C600.903 213.905 611.382 203.426 611.382 190.518C611.382 177.611 600.903 167.132 587.996 167.132ZM546.97 404.822C547.561 407.034 547.868 409.331 547.868 411.66C547.868 411.667 547.868 411.674 547.868 411.68C547.868 418.717 545.072 425.465 540.097 430.44C535.121 435.416 528.373 438.211 521.336 438.211H521.316C514.28 438.211 507.532 435.416 502.556 430.44C493.429 421.313 478.61 421.313 469.483 430.44C460.355 439.567 460.355 454.387 469.483 463.514C483.23 477.261 501.875 484.984 521.316 484.983H521.336C540.778 484.984 559.422 477.261 573.17 463.514C586.917 449.766 594.64 431.121 594.64 411.68C594.64 411.674 594.64 411.667 594.64 411.66C594.64 401.39 592.485 391.342 588.425 382.122C590.015 380.558 591.807 379.188 593.771 378.054C593.777 378.05 593.783 378.048 593.788 378.044C599.882 374.526 607.124 373.572 613.92 375.394C620.717 377.215 626.512 381.661 630.03 387.755C630.033 387.761 630.037 387.767 630.04 387.772C633.558 393.866 634.512 401.108 632.691 407.904C629.35 420.372 636.76 433.206 649.227 436.547C661.695 439.888 674.529 432.477 677.869 420.01C682.901 401.231 680.267 381.223 670.547 364.386C670.543 364.38 670.54 364.374 670.536 364.369C660.816 347.532 644.805 335.246 626.026 330.214C607.247 325.182 587.238 327.817 570.401 337.538C570.396 337.541 570.39 337.545 570.384 337.548C561.532 342.659 553.938 349.509 547.993 357.588C545.735 356.993 543.545 356.097 541.486 354.909C541.481 354.906 541.475 354.902 541.469 354.899C535.375 351.381 530.929 345.586 529.108 338.789C527.287 331.993 528.24 324.751 531.758 318.657C531.761 318.651 531.765 318.645 531.768 318.639C535.286 312.546 541.081 308.1 547.878 306.278C560.346 302.937 567.755 290.104 564.415 277.636C561.074 265.168 548.24 257.759 535.773 261.099C516.993 266.131 500.983 278.416 491.262 295.253C491.258 295.259 491.255 295.265 491.252 295.27C481.531 312.107 478.897 332.116 483.929 350.895C488.961 369.674 501.246 385.685 518.083 395.405C518.089 395.409 518.095 395.412 518.1 395.416C527.048 400.581 536.892 403.746 546.97 404.822ZM297.516 395.769C298.107 397.98 298.413 400.278 298.413 402.607C298.413 402.613 298.413 402.62 298.413 402.627C298.413 409.664 295.618 416.412 290.642 421.387C285.667 426.363 278.919 429.158 271.882 429.158H271.862C264.825 429.158 258.077 426.363 253.102 421.387C243.975 412.26 229.155 412.26 220.028 421.387C210.901 430.514 210.901 445.334 220.028 454.461C233.775 468.207 252.421 475.93 271.862 475.93H271.882C291.324 475.93 309.968 468.207 323.716 454.461C337.462 440.713 345.185 422.068 345.185 402.627C345.185 402.62 345.185 402.613 345.185 402.607C345.185 392.337 343.03 382.289 338.971 373.069C340.56 371.505 342.353 370.134 344.317 369.001C344.323 368.998 344.328 368.994 344.334 368.991C350.428 365.473 357.67 364.519 364.466 366.34C371.263 368.162 377.057 372.608 380.576 378.702C380.579 378.708 380.582 378.714 380.586 378.719C384.104 384.813 385.057 392.055 383.237 398.851C379.896 411.319 387.306 424.153 399.773 427.493C412.24 430.834 425.075 423.424 428.415 410.957C433.447 392.178 430.813 372.169 421.092 355.332C421.089 355.327 421.086 355.321 421.082 355.315C411.362 338.479 395.35 326.193 376.572 321.161C357.793 316.129 337.784 318.764 320.947 328.484C320.941 328.488 320.936 328.491 320.93 328.495C312.078 333.605 304.483 340.455 298.538 348.535C296.28 347.94 294.091 347.044 292.032 345.856C292.026 345.852 292.021 345.849 292.015 345.845C285.921 342.327 281.474 336.533 279.654 329.736C277.832 322.94 278.785 315.698 282.304 309.604C282.307 309.598 282.31 309.593 282.314 309.587C285.832 303.493 291.627 299.046 298.424 297.225C310.891 293.884 318.301 281.05 314.961 268.583C311.62 256.115 298.785 248.706 286.318 252.046C267.539 257.078 251.529 269.364 241.807 286.2C241.804 286.206 241.801 286.211 241.798 286.217C232.077 303.054 229.443 323.063 234.474 341.842C239.506 360.62 251.792 376.632 268.629 386.352C268.635 386.355 268.64 386.359 268.646 386.362C277.594 391.529 287.438 394.693 297.516 395.769Z" fill="black"/>
<path fill-rule="evenodd" clip-rule="evenodd" d="M1317.17 59.905C1317.17 59.905 1166.25 59.905 1052.27 59.905C970.47 59.905 904.157 126.217 904.157 208.018C904.157 318.012 904.157 477.47 904.157 587.464C904.157 669.265 970.47 735.577 1052.27 735.577C1162.26 735.577 1321.72 735.577 1431.72 735.577C1513.52 735.577 1579.83 669.265 1579.83 587.464C1579.83 462.368 1579.83 288.15 1579.83 288.15C1579.83 275.243 1569.35 264.764 1556.44 264.764C1543.54 264.764 1533.06 275.243 1533.06 288.15V587.463C1533.06 643.433 1487.68 688.804 1431.72 688.805C1431.71 688.805 1052.27 688.805 1052.27 688.805C996.302 688.804 950.931 643.433 950.93 587.466C950.93 587.463 950.93 208.019 950.93 208.019C950.931 152.049 996.302 106.678 1052.27 106.678C1166.25 106.678 1317.17 106.678 1317.17 106.678C1330.08 106.678 1340.56 96.1983 1340.56 83.2913C1340.56 70.3843 1330.08 59.905 1317.17 59.905ZM1031.52 522.468C1031.52 569.827 1069.91 608.219 1117.27 608.219C1185.27 608.219 1293.46 608.219 1361.46 608.219C1408.81 608.219 1447.21 569.827 1447.21 522.468C1447.21 454.467 1447.21 346.279 1447.21 278.278C1447.21 230.919 1408.81 192.528 1361.46 192.528C1293.46 192.528 1185.27 192.528 1117.27 192.528C1069.91 192.528 1031.52 230.919 1031.52 278.277C1031.52 346.279 1031.52 454.467 1031.52 522.468ZM1078.29 522.47V278.278C1078.29 256.751 1095.74 239.3 1117.27 239.3C1185.27 239.3 1293.46 239.3 1361.46 239.3C1382.98 239.3 1400.43 256.751 1400.43 278.278C1400.43 346.279 1400.43 454.467 1400.43 522.468C1400.43 543.995 1382.98 561.446 1361.46 561.446C1293.46 561.446 1185.27 561.446 1117.27 561.446C1095.74 561.446 1078.29 543.996 1078.29 522.47ZM1170.95 483.31V521.596C1170.95 534.503 1181.43 544.982 1194.34 544.982C1207.25 544.982 1217.73 534.503 1217.73 521.596V499.868C1219.06 499.93 1220.39 499.962 1221.73 499.961C1232 499.961 1242.65 499.961 1252.92 499.961C1256.81 499.962 1260.68 499.696 1264.5 499.175V521.596C1264.5 534.503 1274.98 544.982 1287.89 544.982C1300.79 544.982 1311.27 534.503 1311.27 521.596V477.04C1312.04 476.323 1312.8 475.592 1313.55 474.846C1315.49 472.905 1317.33 470.88 1319.06 468.78H1364.09C1377 468.78 1387.47 458.3 1387.47 445.393C1387.47 432.486 1377 422.007 1364.09 422.007H1338.31C1338.55 419.425 1338.66 416.825 1338.66 414.211V383.03C1338.66 380.417 1338.55 377.816 1338.31 375.234H1364.09C1377 375.234 1387.47 364.755 1387.47 351.848C1387.47 338.94 1377 328.462 1364.09 328.462H1319.06C1317.33 326.361 1315.49 324.337 1313.55 322.396C1312.8 321.649 1312.04 320.918 1311.27 320.201V275.646C1311.27 262.738 1300.79 252.26 1287.89 252.26C1274.98 252.26 1264.5 262.738 1264.5 275.646V298.065C1260.68 297.545 1256.81 297.28 1252.92 297.28C1242.65 297.28 1232 297.28 1221.73 297.28C1220.39 297.28 1219.06 297.311 1217.73 297.373V275.646C1217.73 262.738 1207.25 252.26 1194.34 252.26C1181.43 252.26 1170.95 262.738 1170.95 275.646V313.931C1167.48 316.483 1164.18 319.309 1161.1 322.396C1159.16 324.337 1157.32 326.361 1155.59 328.462H1118.14C1105.23 328.462 1094.75 338.94 1094.75 351.848C1094.75 364.755 1105.23 375.234 1118.14 375.234H1136.34C1136.1 377.816 1135.98 380.417 1135.98 383.03C1135.98 393.298 1135.98 403.943 1135.98 414.211C1135.98 416.825 1136.1 419.425 1136.34 422.007H1118.14C1105.23 422.007 1094.75 432.486 1094.75 445.393C1094.75 458.3 1105.23 468.78 1118.14 468.78H1155.59C1157.32 470.88 1159.16 472.905 1161.1 474.846C1164.18 477.932 1167.48 480.758 1170.95 483.31ZM1291.89 383.03V414.211C1291.89 424.549 1287.79 434.463 1280.48 441.773C1273.17 449.082 1263.25 453.189 1252.92 453.188H1221.73C1211.4 453.189 1201.48 449.082 1194.17 441.773C1186.86 434.463 1182.76 424.549 1182.76 414.211V383.03C1182.76 372.692 1186.86 362.779 1194.17 355.469C1201.48 348.159 1211.4 344.052 1221.73 344.052H1252.92C1263.25 344.052 1273.17 348.159 1280.48 355.469C1287.79 362.779 1291.89 372.692 1291.89 383.03Z" fill="black"/>
<path fill-rule="evenodd" clip-rule="evenodd" d="M1579.83 208.018C1579.83 126.217 1513.52 59.905 1431.72 59.905C1321.72 59.905 1162.26 59.905 1052.27 59.905C970.47 59.905 904.157 126.217 904.157 208.018C904.157 318.012 904.157 477.47 904.157 587.464C904.157 669.265 970.47 735.577 1052.27 735.577C1162.26 735.577 1321.72 735.577 1431.72 735.577C1513.52 735.577 1579.83 669.265 1579.83 587.464V208.018ZM1533.06 501.714V208.017C1533.06 152.049 1487.68 106.678 1431.72 106.678C1431.72 106.678 1052.27 106.678 1052.27 106.678C996.302 106.678 950.931 152.049 950.93 208.019V501.714H989.907C1002.81 501.714 1013.29 512.193 1013.29 525.1C1013.29 538.007 1002.81 548.486 989.907 548.486H950.93V587.466C950.931 643.433 996.302 688.804 1052.27 688.805C1052.27 688.805 1431.71 688.805 1431.72 688.805C1487.68 688.804 1533.06 643.433 1533.06 587.464V548.486H1488.82C1475.91 548.486 1465.43 538.007 1465.43 525.1C1465.43 512.193 1475.91 501.714 1488.82 501.714H1533.06Z" fill="black" fill-opacity="0.5"/>
<path fill-rule="evenodd" clip-rule="evenodd" d="M766.024 1092.88C766.024 1070.14 756.99 1048.33 740.909 1032.25C724.828 1016.17 703.017 1007.13 680.275 1007.13H212.547C165.188 1007.13 126.797 1045.52 126.797 1092.88C126.797 1171.74 126.797 1306.72 126.797 1385.59C126.797 1408.33 135.832 1430.14 151.913 1446.22C167.994 1462.3 189.805 1471.34 212.547 1471.34C291.197 1471.34 422.922 1471.34 479.037 1471.34C502.417 1471.34 524.784 1461.79 540.958 1444.91L592.997 1390.59C600.35 1382.91 610.515 1378.57 621.141 1378.57H680.275C727.633 1378.57 766.024 1340.18 766.024 1292.82V1092.88ZM719.252 1092.88V1292.82C719.252 1314.35 701.801 1331.8 680.275 1331.8H621.143C597.762 1331.8 575.397 1341.35 559.222 1358.23L507.184 1412.55C499.83 1420.22 489.664 1424.56 479.038 1424.56H212.547C202.21 1424.56 192.296 1420.46 184.986 1413.15C177.676 1405.84 173.57 1395.92 173.57 1385.59V1092.88C173.57 1071.36 191.02 1053.91 212.546 1053.9C212.549 1053.9 680.274 1053.9 680.274 1053.9C690.613 1053.91 700.526 1058.01 707.835 1065.32C715.145 1072.63 719.252 1082.54 719.252 1092.88ZM232 1395.14H317.235C330.142 1395.14 340.621 1384.66 340.621 1371.76C340.621 1358.85 330.142 1348.37 317.235 1348.37H232C219.093 1348.37 208.614 1358.85 208.614 1371.76C208.614 1384.66 219.093 1395.14 232 1395.14ZM396.311 1093.01C389.085 1089.91 380.787 1090.66 374.224 1094.98C367.662 1099.31 363.712 1106.65 363.712 1114.51V1301.6C363.712 1309.76 367.966 1317.33 374.937 1321.57C381.909 1325.82 390.588 1326.12 397.838 1322.37L506.974 1265.95C514.742 1261.94 519.621 1253.92 519.621 1245.18V1161.28C519.621 1151.92 514.045 1143.47 505.447 1139.78L396.311 1093.01ZM410.485 1149.97L472.848 1176.7C472.848 1176.7 472.848 1230.94 472.848 1230.94C472.849 1230.94 410.485 1263.18 410.485 1263.18V1149.97ZM535.212 1161.28C535.212 1148.77 545.037 1138.55 557.394 1137.92H557.597C558.023 1137.9 558.462 1137.89 558.913 1137.89H582.047C582.449 1137.89 582.851 1137.9 583.254 1137.9L584.455 1137.94L585.651 1138L586.841 1138.07C596.202 1138.79 604.985 1141.57 612.73 1145.96L613.708 1146.53L614.992 1147.31L616.256 1148.12L617.499 1148.96L618.72 1149.83L619.919 1150.72L621.096 1151.65L622.25 1152.6L623.659 1153.83L625.031 1155.1L626.364 1156.41L627.657 1157.75L628.91 1159.14L630.122 1160.57L631.291 1162.03L632.416 1163.52L633.497 1165.05L634.533 1166.61L635.523 1168.21L636.465 1169.84L637.359 1171.5L638.039 1172.84L638.687 1174.21L639.303 1175.6L639.886 1177L640.436 1178.42L640.951 1179.85L641.432 1181.3L641.878 1182.77L642.289 1184.25L642.664 1185.75L643.003 1187.26L643.306 1188.78L643.57 1190.32L643.796 1191.87L643.985 1193.43L644.135 1195.01L644.245 1196.59L644.316 1198.19L644.346 1199.79L644.348 1200.32C644.348 1234.73 616.455 1262.62 582.047 1262.62L557.394 1262.59C545.037 1261.96 535.212 1251.75 535.212 1239.23V1161.28ZM582.047 1184.67H581.985V1215.85H582.048C588.598 1215.85 594.2 1211.79 596.482 1206.05L596.822 1205.11L596.932 1204.75C597.06 1204.33 597.169 1203.89 597.26 1203.45L597.427 1202.47L597.531 1201.5L597.574 1200.52L597.575 1200.19C597.575 1195.85 595.794 1191.93 592.923 1189.11L592.889 1189.08C590.091 1186.35 586.265 1184.67 582.047 1184.67Z" fill="black" fill-opacity="0.5"/>
<path fill-rule="evenodd" clip-rule="evenodd" d="M111.532 1566.64V1126.77C111.532 1113.86 101.052 1103.38 88.1452 1103.38C75.2382 1103.38 64.7589 1113.86 64.7589 1126.77V1566.64C64.7589 1579.55 75.2382 1590.03 88.1452 1590.03C101.052 1590.03 111.532 1579.55 111.532 1566.64ZM251.85 1471.34V1507.01C251.85 1519.92 262.329 1530.39 275.236 1530.39C288.143 1530.39 298.622 1519.92 298.622 1507.01V1471.34H407.437V1507.01C407.437 1519.92 417.916 1530.39 430.823 1530.39C443.73 1530.39 454.209 1519.92 454.209 1507.01V1471.34H479.04C502.42 1471.34 524.787 1461.79 540.961 1444.91L593 1390.59C600.352 1382.91 610.518 1378.57 621.144 1378.57H680.278C727.636 1378.57 766.027 1340.18 766.027 1292.82V1193.29C766.027 1180.38 755.548 1169.9 742.641 1169.9C729.733 1169.9 719.255 1180.38 719.255 1193.29V1292.82C719.254 1314.35 701.804 1331.8 680.278 1331.8H621.146C597.765 1331.8 575.4 1341.35 559.225 1358.23L507.187 1412.55C499.833 1420.22 489.667 1424.56 479.041 1424.56H212.55C202.213 1424.56 192.299 1420.46 184.989 1413.15C177.679 1405.84 173.573 1395.92 173.573 1385.59V1092.88C173.573 1071.36 191.023 1053.91 212.549 1053.9C212.552 1053.9 587.958 1053.9 587.958 1053.9C600.865 1053.9 611.344 1043.43 611.344 1030.52C611.344 1017.61 600.865 1007.13 587.958 1007.13H212.55C165.191 1007.13 126.8 1045.52 126.8 1092.88C126.8 1171.74 126.8 1306.72 126.8 1385.59C126.8 1408.33 135.835 1430.14 151.916 1446.22C167.997 1462.3 189.808 1471.34 212.55 1471.34H251.85ZM237.623 1270.42C251.284 1270.42 262.374 1281.51 262.374 1295.17C262.374 1308.83 251.284 1319.92 237.623 1319.92C223.963 1319.92 212.873 1308.83 212.873 1295.17C212.873 1281.51 223.963 1270.42 237.623 1270.42ZM237.623 1189.73C251.284 1189.73 262.374 1200.82 262.374 1214.48C262.374 1228.14 251.284 1239.23 237.623 1239.23C223.963 1239.23 212.873 1228.14 212.873 1214.48C212.873 1200.82 223.963 1189.73 237.623 1189.73ZM237.623 1109.05C251.284 1109.05 262.374 1120.14 262.374 1133.8C262.374 1147.46 251.284 1158.55 237.623 1158.55C223.963 1158.55 212.873 1147.46 212.873 1133.8C212.873 1120.14 223.963 1109.05 237.623 1109.05Z" fill="black"/>
<path fill-rule="evenodd" clip-rule="evenodd" d="M1452.44 1094.14C1452.73 1094.13 1453.02 1094.13 1453.31 1094.13H1486.14C1509.75 1094.13 1532.39 1103.51 1549.09 1120.21C1565.79 1136.9 1575.17 1159.55 1575.17 1183.16C1575.17 1243.7 1575.17 1333.09 1575.17 1393.62C1575.17 1417.24 1565.79 1439.88 1549.09 1456.58C1532.39 1473.28 1509.75 1482.66 1486.13 1482.66H1211.86C1198.94 1482.66 1188.47 1472.19 1188.47 1459.27C1188.47 1446.35 1198.94 1435.88 1211.86 1435.88C1224.64 1435.88 1236.73 1430.1 1244.75 1420.16L1284.11 1371.37C1301.01 1350.42 1326.49 1338.24 1353.4 1338.24H1387.67C1398.87 1338.24 1409.62 1333.79 1417.55 1325.86C1425.47 1317.94 1429.93 1307.19 1429.93 1295.98V1140.92H1377.76C1364.85 1140.92 1354.37 1130.44 1354.37 1117.53C1354.37 1104.62 1364.85 1094.14 1377.76 1094.14H1452.44ZM1292.16 1435.88L1320.51 1400.74C1328.54 1390.79 1340.63 1385.01 1353.4 1385.01C1353.41 1385.01 1387.67 1385.01 1387.67 1385.01C1411.28 1385.01 1433.92 1375.63 1450.62 1358.93C1467.32 1342.24 1476.7 1319.59 1476.7 1295.98V1140.9H1486.14C1497.34 1140.9 1508.09 1145.35 1516.02 1153.28C1523.94 1161.2 1528.39 1171.95 1528.39 1183.16V1393.62C1528.39 1404.83 1523.94 1415.58 1516.02 1423.51C1508.09 1431.43 1497.34 1435.88 1486.14 1435.88H1292.16ZM1146.42 1068.07C1051.76 1068.07 974.918 1144.92 974.918 1239.57C974.918 1334.22 1051.76 1411.07 1146.42 1411.07C1241.07 1411.07 1317.92 1334.22 1317.92 1239.57C1317.92 1144.92 1241.07 1068.07 1146.42 1068.07ZM1146.42 1114.84C1215.26 1114.84 1271.14 1170.73 1271.14 1239.57C1271.14 1308.41 1215.26 1364.3 1146.42 1364.3C1077.58 1364.3 1021.69 1308.41 1021.69 1239.57C1021.69 1170.73 1077.58 1114.84 1146.42 1114.84Z" fill="black" fill-opacity="0.5"/>
<path fill-rule="evenodd" clip-rule="evenodd" d="M1476.7 1082.23C1476.7 1059.49 1467.66 1037.68 1451.58 1021.6C1435.5 1005.52 1413.69 996.483 1390.95 996.483C1289.9 996.483 1091.55 996.483 990.509 996.483C943.151 996.483 904.759 1034.87 904.759 1082.23C904.759 1165.82 904.759 1313.32 904.759 1396.91C904.759 1444.26 943.15 1482.66 990.509 1482.66H1213.43C1239.36 1482.66 1263.89 1470.93 1280.17 1450.75L1321.5 1399.52C1328.9 1390.34 1340.05 1385.01 1351.84 1385.01H1390.95C1438.31 1385.01 1476.7 1346.62 1476.7 1299.26V1082.23ZM1429.93 1082.23V1299.26C1429.93 1320.79 1412.48 1338.24 1390.95 1338.24C1390.95 1338.24 1351.84 1338.24 1351.84 1338.24C1325.91 1338.24 1301.38 1349.97 1285.1 1370.15L1243.77 1421.38C1236.37 1430.55 1225.21 1435.88 1213.43 1435.88C1213.43 1435.88 990.509 1435.88 990.509 1435.88C968.982 1435.88 951.532 1418.43 951.532 1396.91C951.532 1396.9 951.532 1082.23 951.532 1082.23C951.532 1060.71 968.983 1043.26 990.509 1043.26C1091.55 1043.26 1289.9 1043.26 1390.95 1043.26C1401.29 1043.26 1411.2 1047.36 1418.51 1054.67C1425.82 1061.98 1429.93 1071.9 1429.93 1082.23ZM1132.34 1262.98C1132.93 1265.19 1133.23 1267.49 1133.23 1269.82C1133.23 1269.82 1133.23 1269.83 1133.23 1269.84C1133.23 1276.87 1130.44 1283.62 1125.46 1288.6C1120.49 1293.57 1113.74 1296.37 1106.7 1296.37H1106.68C1099.65 1296.37 1092.9 1293.57 1087.92 1288.6C1078.8 1279.47 1063.98 1279.47 1054.85 1288.6C1045.72 1297.72 1045.72 1312.54 1054.85 1321.67C1068.6 1335.42 1087.24 1343.14 1106.68 1343.14H1106.7C1126.14 1343.14 1144.79 1335.42 1158.54 1321.67C1172.28 1307.92 1180.01 1289.28 1180.01 1269.84C1180.01 1269.83 1180.01 1269.82 1180.01 1269.82C1180.01 1259.55 1177.85 1249.5 1173.79 1240.28C1175.38 1238.72 1177.17 1237.34 1179.14 1236.21C1179.14 1236.21 1179.15 1236.2 1179.16 1236.2C1185.25 1232.68 1192.49 1231.73 1199.29 1233.55C1206.08 1235.37 1211.88 1239.82 1215.4 1245.91C1215.4 1245.92 1215.4 1245.92 1215.41 1245.93C1218.93 1252.02 1219.88 1259.26 1218.06 1266.06C1214.72 1278.53 1222.13 1291.36 1234.59 1294.7C1247.06 1298.04 1259.9 1290.63 1263.24 1278.17C1268.27 1259.39 1265.63 1239.38 1255.91 1222.54C1255.91 1222.54 1255.91 1222.53 1255.9 1222.53C1246.18 1205.69 1230.17 1193.4 1211.39 1188.37C1192.61 1183.34 1172.61 1185.97 1155.77 1195.69C1155.76 1195.7 1155.76 1195.7 1155.75 1195.7C1146.9 1200.82 1139.3 1207.67 1133.36 1215.74C1131.1 1215.15 1128.91 1214.25 1126.85 1213.07C1126.85 1213.06 1126.84 1213.06 1126.84 1213.06C1120.74 1209.54 1116.3 1203.74 1114.47 1196.95C1112.65 1190.15 1113.61 1182.91 1117.13 1176.81C1117.13 1176.81 1117.13 1176.8 1117.14 1176.8C1120.65 1170.7 1126.45 1166.26 1133.25 1164.43C1145.71 1161.09 1153.12 1148.26 1149.78 1135.79C1146.44 1123.32 1133.61 1115.92 1121.14 1119.26C1102.36 1124.29 1086.35 1136.57 1076.63 1153.41C1076.63 1153.42 1076.62 1153.42 1076.62 1153.43C1066.9 1170.26 1064.26 1190.27 1069.3 1209.05C1074.33 1227.83 1086.61 1243.84 1103.45 1253.56C1103.46 1253.57 1103.46 1253.57 1103.47 1253.57C1112.42 1258.74 1122.26 1261.9 1132.34 1262.98Z" fill="black"/>
</svg>
