<svg xmlns="http://www.w3.org/2000/svg" width="192.572" height="58.102" viewBox="0 0 192.572 58.102"><defs><style>.a{fill:#ffffff;}.b{fill:#ffffff;}</style></defs><g transform="translate(-60 -822)"><g transform="translate(-1 -1)"><g transform="translate(61 823)"><path class="a" d="M436.1,141.063v-2.109h14.1v2.109h-5.709v14.445h-2.656V141.063Z" transform="translate(-436.098 -115.844)"/><g transform="translate(18.269 23.109)"><path class="a" d="M472.626,141.064h-4.815c-3.3-.149-4.915,1.464-5.063,5.063h9.878v2.11h-9.9c.074,3.5,1.836,5.336,4.939,5.162h4.964v2.11H467.19c-2.854,0-4.418-.6-5.659-2.135a8.764,8.764,0,0,1-1.712-5.808c0-3.3.893-5.634,2.755-7.2,1.191-.993,2.8-1.415,5.386-1.415h4.667Z" transform="translate(-459.819 -138.953)"/><path class="a" d="M497.095,155.508h-5.138c-3,0-4.641-.471-5.932-1.738a9.14,9.14,0,0,1-2.258-6.429c0-3,1.117-5.808,2.853-7.148,1.142-.869,2.706-1.241,5.188-1.241h5.286v2.11h-5.138c-2.259,0-3.226.3-4,1.216a8.453,8.453,0,0,0-1.39,5.138,6.978,6.978,0,0,0,1.439,4.691c.869.993,1.837,1.291,4.17,1.291h4.914Z" transform="translate(-465.323 -138.953)"/></g><path class="a" d="M522.857,155.508H520.2v-7.322h-8.737v7.322h-2.656V138.953h2.656v7.123H520.2v-7.123h2.656Z" transform="translate(-452.809 -115.844)"/><path class="a" d="M539.179,155.508h-2.556V138.953h3.152l8.463,13.254V138.953h2.556v16.555h-3.053l-8.563-13.2Z" transform="translate(-459.201 -115.844)"/><g transform="translate(98 22.861)"><path class="a" d="M566.146,147.145c0,4.492,1.589,6.428,5.263,6.428,2.283,0,3.822-.819,4.566-2.408a11.256,11.256,0,0,0,.6-3.9,9.735,9.735,0,0,0-.893-4.567,4.574,4.574,0,0,0-4.219-1.961c-3.674,0-5.312,1.961-5.312,6.4m13.229.049c0,3.028-.745,5.187-2.258,6.553a8.7,8.7,0,0,1-5.883,1.935c-2.755,0-4.914-.843-6.18-2.407a10.343,10.343,0,0,1-1.713-6.081,9.652,9.652,0,0,1,1.836-6.081c1.39-1.637,3.525-2.482,6.3-2.482,5.386,0,7.893,2.73,7.893,8.563" transform="translate(-563.342 -138.631)"/><path class="a" d="M595.066,138.953v9.63c0,2.11.223,3.078.769,3.7a4.631,4.631,0,0,0,3.574,1.117h3.549v2.11h-4.07c-4.592.075-6.6-1.986-6.478-6.6v-9.953Z" transform="translate(-570.021 -138.705)"/><path class="a" d="M614.393,147.145c0,4.492,1.588,6.428,5.262,6.428,2.284,0,3.822-.819,4.567-2.408a11.256,11.256,0,0,0,.6-3.9,9.736,9.736,0,0,0-.893-4.567,4.575,4.575,0,0,0-4.22-1.961c-3.673,0-5.311,1.961-5.311,6.4m13.229.049c0,3.028-.745,5.187-2.259,6.553a8.7,8.7,0,0,1-5.882,1.935c-2.756,0-4.914-.843-6.181-2.407a10.348,10.348,0,0,1-1.713-6.081,9.651,9.651,0,0,1,1.837-6.081c1.39-1.637,3.525-2.482,6.3-2.482,5.386,0,7.893,2.73,7.893,8.563" transform="translate(-574.43 -138.631)"/><path class="a" d="M653.868,146.027v9.482h-6.131c-3.2,0-4.593-.4-6.007-1.738-1.464-1.415-2.134-3.425-2.134-6.453,0-3.674.993-6.081,3.053-7.322,1.242-.769,2.607-1.043,5.213-1.043h6.007v2.11h-5.784c-2.16,0-2.7.1-3.574.645-1.414.869-2.11,2.656-2.11,5.41a7.525,7.525,0,0,0,.969,4.443c.919,1.439,1.96,1.836,4.715,1.836h3.128v-5.262h-5.089v-2.11Z" transform="translate(-580.867 -138.705)"/></g><path class="a" d="M664.993,138.953h3.078l4.939,7.818,4.815-7.818H680.9l-6.627,9.9v6.652h-2.656v-6.652Z" transform="translate(-488.703 -115.844)"/><path class="a" d="M439.587,115.64h6.4v-6.692h3.489v16.559H445.99v-6.932h-6.4v6.932H436.1V108.948h3.489Z" transform="translate(-436.098 -108.948)"/><path class="a" d="M470.692,108.948l-7.022,16.559h3.7l1.479-3.948h7.207l1.525,3.948h3.88l-7.069-16.559Zm1.709,3.293,2.518,6.361h-4.943Z" transform="translate(-442.435 -108.948)"/><path class="a" d="M491.938,111.837v-2.888h14.35v2.888H500.9v13.671H497.3V111.837Z" transform="translate(-448.931 -108.948)"/><path class="a" d="M519.9,111.837v-2.888h14.349v2.888h-5.383v13.671h-3.606V111.837Z" transform="translate(-455.357 -108.948)"/><g transform="translate(85.77 0)"><path class="a" d="M551.408,115.663h9.658v2.888h-9.68c.022,2.981,1.2,4.067,3.95,4.067h5.73v2.888h-5.891c-2.01,0-3.558-.162-5.175-1.456-1.708-1.363-2.538-3.536-2.538-6.54,0-5.837,2.469-8.564,7.8-8.564h5.8v2.888h-5.73c-2.518,0-3.789,1.238-3.928,3.827" transform="translate(-547.462 -108.948)"/><path class="a" d="M578.788,123.778c-1.272-1.338-1.5-2.79-1.5-4.983v-9.847h3.489v9.732c0,1.361.022,2.353.578,3,.739.876,1.733,1.084,3.212,1.084h4.113v2.743h-4.414c-2.4,0-4-.162-5.475-1.729" transform="translate(-554.316 -108.948)"/></g><path class="a" d="M607.819,108.948,600.8,125.507h3.7l1.478-3.948h7.207l1.525,3.948h3.881l-7.069-16.559Zm1.71,3.293,2.519,6.361H607.1Z" transform="translate(-473.95 -108.948)"/><path class="a" d="M638.507,108.948l6.8,11.9-.162-11.9H648.7v16.559h-4.042l-7.15-12.525.162,12.525h-3.579V108.948Z" transform="translate(-481.602 -108.948)"/><g transform="translate(66.392 0)"><path class="a" d="M666.134,108.948v16.559h7.695c2.01,0,3.558-.162,5.173-1.456,1.705-1.363,2.536-3.529,2.536-6.524,0-5.853-2.468-8.579-7.8-8.579Zm7.533,2.888c3.1,0,4.067,1.336,4.067,5.391,0,4.078-.97,5.391-4.067,5.391h-4.044V111.836Z" transform="translate(-555.358 -108.948)"/><path class="b" d="M526.091,177.2c0,.6-.505,1.148-1.6,1.148-.782,0-1.1-.321-1.1-.838,0-.425.184-.735,1.206-1.01,1.228-.321,1.389-.505,1.469-.666h.023Zm-1.275-4.295a2.226,2.226,0,0,0-2.366,1.78l.977.344a1.311,1.311,0,0,1,1.412-1.148c.85,0,1.194.39,1.194.827,0,.505-.471.665-1.687.976-1.47.367-2.044.862-2.044,1.895,0,.93.62,1.758,2.089,1.758a2.013,2.013,0,0,0,1.791-.816h.022v.643h.977v-4.019a2.082,2.082,0,0,0-2.365-2.24" transform="translate(-522.302 -123.647)"/><path class="b" d="M533.507,172.906a2.181,2.181,0,0,0-1.665.758h-.023v-.586h-1.091v6.087h1.114v-3.824a1.328,1.328,0,0,1,1.447-1.4c.907,0,1.286.551,1.286,1.562v3.664H535.7V175.18a2.078,2.078,0,0,0-2.193-2.274" transform="translate(-524.238 -123.647)"/></g><path class="b" d="M543.076,178.633h4.915v-1.057h-3.767v-2.561h3.446v-1.022h-3.446v-2.331h3.767v-1.068h-4.915Z" transform="translate(-460.684 -123.116)"/><path class="b" d="M555.549,176.451h-.023l-2.446-5.857h-1.458v8.039h1.148v-6.109h.023l2.607,6.109h.276l2.607-6.109h.023v6.109h1.148v-8.039h-1.447Z" transform="translate(-462.648 -123.116)"/><g transform="translate(98.76 47.307)"><path class="b" d="M567.1,177.576h-1.62v-2.652h1.643c1.217,0,1.906.276,1.906,1.3,0,1.114-.781,1.355-1.929,1.355m-1.62-5.914h1.849c.873,0,1.4.39,1.4,1.137s-.459,1.138-1.389,1.138h-1.861Zm3.411,2.653v-.023a1.7,1.7,0,0,0,.987-1.584,2.147,2.147,0,0,0-2.354-2.113h-3.192v8.039h2.951c2.147,0,2.894-1.022,2.894-2.412a1.959,1.959,0,0,0-1.286-1.906" transform="translate(-564.328 -170.422)"/><path class="b" d="M576.911,174.43h-1.906v-2.791H576.9c.977,0,1.654.379,1.654,1.4s-.724,1.39-1.643,1.39m2.8-1.39c0-1.6-1.091-2.446-2.71-2.446h-3.147v8.039h1.148v-3.181h1.62l1.7,3.181h1.263l-1.758-3.273a2.128,2.128,0,0,0,1.884-2.32" transform="translate(-566.518 -170.422)"/><path class="b" d="M586.09,177.687c-1.241,0-2.228-.965-2.228-3.193,0-2.1,1.034-3.043,2.228-3.043,1.171,0,2.193.976,2.193,3.078,0,2.24-.976,3.159-2.193,3.159m0-7.316c-1.757,0-3.433,1.355-3.433,4.123,0,3.078,1.677,4.261,3.433,4.261,1.734,0,3.4-1.148,3.4-4.226,0-2.768-1.665-4.157-3.4-4.157" transform="translate(-568.54 -170.371)"/></g><path class="b" d="M598.132,176.589h-.023l-3.457-6h-1.183v8.039h1.148v-5.994h.023l3.491,5.994h1.16v-8.039h-1.16Z" transform="translate(-472.266 -123.116)"/><g transform="translate(131.277 47.307)"><path class="b" d="M609.982,177.675c-1.241,0-2.228-.953-2.228-3.181,0-2.1,1.034-3.044,2.228-3.044,1.263,0,1.768.93,1.929,1.952l1.171-.195a3.01,3.01,0,0,0-3.1-2.837c-1.758,0-3.433,1.355-3.433,4.123,0,3.078,1.676,4.261,3.433,4.261a3.006,3.006,0,0,0,3.112-3.044l-1.229-.195c-.115,1.171-.585,2.159-1.883,2.159" transform="translate(-606.549 -170.371)"/><path class="b" d="M619.033,178.327c-.965,0-1.688-.747-1.688-2.205s.723-2.193,1.688-2.193c.942,0,1.654.769,1.654,2.193s-.712,2.205-1.654,2.205m0-5.421c-1.493,0-2.791,1.137-2.791,3.215s1.229,3.215,2.791,3.215,2.756-1.137,2.756-3.215-1.287-3.215-2.756-3.215" transform="translate(-608.777 -170.954)"/><path class="b" d="M631.006,172.906a2.051,2.051,0,0,0-1.688.861h-.023a1.791,1.791,0,0,0-1.573-.861,1.877,1.877,0,0,0-1.528.758h-.023v-.586h-1.01v6.087h1.091v-3.939a1.165,1.165,0,0,1,1.228-1.286c.8,0,1.183.506,1.183,1.367v3.859h1.057v-3.939a1.151,1.151,0,0,1,1.229-1.286c.826,0,1.182.506,1.182,1.367v3.859h1.057v-4.145a2,2,0,0,0-2.182-2.113" transform="translate(-610.826 -170.954)"/><path class="b" d="M640.344,178.327a1.376,1.376,0,0,1-1.482-1.3v-1.7a1.418,1.418,0,0,1,1.482-1.4c1.091,0,1.757.793,1.757,2.193s-.666,2.205-1.757,2.205m.206-5.421a2.183,2.183,0,0,0-1.711.758h-.023v-.586h-1.068v8.671h1.114v-3.169h.023a2.135,2.135,0,0,0,1.677.758c1.5,0,2.653-1.195,2.653-3.215s-1.229-3.215-2.665-3.215" transform="translate(-613.719 -170.954)"/><path class="b" d="M649.831,177.2c0,.6-.506,1.148-1.6,1.148-.78,0-1.1-.321-1.1-.838,0-.425.183-.735,1.206-1.01,1.228-.321,1.389-.505,1.47-.666h.024Zm-1.275-4.295a2.224,2.224,0,0,0-2.365,1.78l.976.344a1.31,1.31,0,0,1,1.412-1.148c.85,0,1.195.39,1.195.827,0,.505-.471.665-1.688.976-1.47.367-2.044.862-2.044,1.895,0,.93.62,1.758,2.089,1.758a2.016,2.016,0,0,0,1.792-.816h.022v.643h.977v-4.019a2.082,2.082,0,0,0-2.366-2.24" transform="translate(-615.625 -170.954)"/><path class="b" d="M657.246,172.906a2.187,2.187,0,0,0-1.667.758h-.022v-.586h-1.091v6.087h1.113v-3.824a1.328,1.328,0,0,1,1.449-1.4c.906,0,1.285.551,1.285,1.562v3.664h1.125V175.18a2.078,2.078,0,0,0-2.193-2.274" transform="translate(-617.561 -170.954)"/></g><path class="b" d="M664.655,177.481l-1.665-4.352h-1.171l2.3,5.662-1.172,3.009h1.091l3.423-8.671h-1.149Z" transform="translate(-487.974 -123.698)"/><path class="b" d="M680.65,180.933l.776-.448v-4.143l-.776-.448Z" transform="translate(-492.302 -124.334)"/><path class="b" d="M680.65,174.491l3.851,2.224v-.9l-3.851-2.223Z" transform="translate(-492.302 -123.805)"/><path class="b" d="M682.646,180.311l.776-.448v-2.368l-.776-.447Z" transform="translate(-492.761 -124.599)"/><path class="b" d="M680.65,170.069l3.851,2.224v-.9l-3.851-2.223Z" transform="translate(-492.302 -122.789)"/><path class="b" d="M680.65,172.28,684.5,174.5v-.9l-3.851-2.223Z" transform="translate(-492.302 -123.297)"/><path class="b" d="M684.643,179.688l.776-.448v-.593l-.776-.447Z" transform="translate(-493.219 -124.863)"/><path class="b" d="M675.435,172.967v-1.49l-.776.448v.593Z" transform="translate(-490.925 -123.319)"/><path class="b" d="M674.659,179.283l3.851,2.224v-.9l-3.851-2.223Z" transform="translate(-490.925 -124.907)"/><path class="b" d="M674.659,177.072l3.851,2.224v-.9l-3.851-2.223Z" transform="translate(-490.925 -124.398)"/><path class="b" d="M674.659,174.862l3.851,2.224v-.9l-3.851-2.223Z" transform="translate(-490.925 -123.891)"/><path class="b" d="M677.431,173.59v-3.264l-.776.447v2.368Z" transform="translate(-491.384 -123.054)"/><path class="b" d="M678.651,173.764l.776.448v-5.039l-.776.448Z" transform="translate(-491.842 -122.789)"/></g></g></g></svg>