<svg width="2454" height="534" viewBox="0 0 2454 534" fill="none" xmlns="http://www.w3.org/2000/svg">
<rect width="2454" height="534" fill="#1E1E1E"/>
<path d="M2110 79.7333C2105.6 90.9333 2101.6 100 2100.93 100C2100.27 100 2091.07 97.3333 2080.4 94C2069.73 90.6667 2060.8 88.1333 2060.53 88.4C2060.27 88.5333 2064 95.6 2068.8 104C2073.6 112.4 2078.4 120.933 2079.33 122.8C2081.2 126.267 2081.07 126.267 2063.87 138C2054.4 144.4 2046.67 150.133 2046.67 150.667C2046.67 151.067 2055.87 152.933 2067.07 154.533C2078.13 156.267 2087.6 157.867 2087.87 158.133C2088.27 158.4 2087.87 168.133 2087.07 179.733C2086.27 191.2 2085.87 200.8 2086 201.067C2086.27 201.333 2091.73 196.533 2098.13 190.533C2104.67 184.4 2111.87 177.733 2114 175.733L2118.13 172L2134 186.533C2142.8 194.667 2150.13 200.933 2150.27 200.8C2150.53 200.667 2150 191.067 2149.2 179.467C2148.27 168 2147.87 158.4 2148.13 158.133C2148.4 157.867 2157.87 156.267 2169.07 154.533C2180.13 152.933 2189.33 151.067 2189.33 150.533C2189.33 150.133 2181.6 144.4 2172.13 138C2156.13 127.2 2154.93 126 2156.27 123.467C2157.07 121.867 2161.87 113.6 2166.93 104.8C2172 96.1333 2175.87 88.8 2175.6 88.5333C2175.33 88.2667 2166.53 90.6667 2155.87 94C2145.33 97.3333 2136.13 100 2135.33 100C2134.67 100 2131.47 93.2 2128.27 84.9333C2125.07 76.8 2121.47 67.6 2120.27 64.8L2117.87 59.4667L2110 79.7333Z" fill="white"/>
<path d="M354.8 104.133C314 108.667 280.267 134.8 271.333 168.8C270.267 173.067 269.333 182.133 269.333 189.333C269.333 215.733 278.133 234.267 298.133 250.4C309.467 259.467 325.867 267.2 353.333 276.667C377.333 284.8 384.133 288.4 387.467 294.933C389.2 298.4 389.333 300 388.133 304.133C385.2 313.867 372.8 319.467 356.8 318.4C343.2 317.467 333.067 311.6 324.667 299.467L322 295.6L290.933 311.2L260 326.8L264.8 334.4C279.6 357.6 300.267 372.267 327.333 378.8C344.4 383.067 374.267 383.067 391.2 378.933C432.267 368.8 458.533 344 464.8 309.333C471.333 273.333 456.267 242.133 424.267 225.6C413.333 219.867 390.8 210.8 374 205.333C355.333 199.2 342.667 190.667 342.667 184.133C342.667 170.933 357.467 164.667 376.933 169.6C383.067 171.067 393.2 179.467 396.8 185.867C398.133 188.4 399.733 187.867 428.133 175.333C444.533 168.133 458.267 162 458.4 161.867C458.667 161.733 457.067 157.867 454.667 153.467C445.867 137.2 429.333 120.8 413.2 112.533C398.267 105.067 376 101.733 354.8 104.133Z" fill="white"/>
<path d="M645.6 104C623.2 107.067 605.467 115.733 589.733 131.467L578.667 142.267V125.2V108H538.667H498.667V242V376H539.333H579.867L580.267 292.933C580.667 210.8 580.667 210 583.6 203.733C587.467 195.2 598.4 184.667 607.733 180.267C613.467 177.6 618 176.667 626.267 176.267C641.6 175.467 650.4 178.267 658.533 186.4C669.6 197.6 669.333 194.667 669.333 291.467V376H711.333H753.467L752.933 274.933C752.533 164.667 752.933 171.333 744.533 154.133C728.267 120.8 684.667 98.6666 645.6 104Z" fill="white"/>
<path d="M902.267 104.133C852.533 110.133 809.333 149.333 794 202.267C784.933 233.6 787.2 274.667 800 307.733C808.667 330.133 828.133 353.6 848 365.333C867.2 376.8 886 381.6 912 381.733C931.333 381.867 941.067 380.133 957.733 373.867C967.467 370.133 984.133 359.733 989.2 354.133C991.067 352.267 992.933 350.667 993.6 350.667C994.133 350.667 994.667 356.4 994.667 363.333V376H1035.33H1076V242V108H1036H996V121.333C996 128.667 995.733 134.667 995.333 134.667C994.933 134.667 990.267 131.333 984.933 127.2C973.467 118.4 954.667 109.067 942.667 106.133C930.933 103.467 914.8 102.667 902.267 104.133ZM949.2 179.333C986.133 188.133 1007.6 228.8 994.667 265.867C984.4 295.6 954.133 313.733 922.133 309.2C909.867 307.467 899.467 302.267 890.667 293.467C877.467 280.133 870.667 262.8 870.667 242.533C870.667 223.467 875.6 210.133 887.467 197.467C902.667 180.933 926.4 174 949.2 179.333Z" fill="white"/>
<path d="M1263.33 104.133C1242.4 106.933 1219.6 116.8 1203.6 130L1194.67 137.333V122.667V108H1155.33H1116V285.333V462.667H1156H1196V407.333V352L1204.4 358.133C1215.2 366.267 1233.87 375.067 1248 378.8C1263.6 382.933 1290.53 382.933 1305.87 378.8C1352.4 366.4 1387.07 328.4 1399.07 276.8C1403.07 259.6 1403.07 223.467 1399.07 205.333C1390.13 163.867 1363.47 128.4 1330.13 113.333C1312.27 105.2 1284 101.333 1263.33 104.133ZM1272.13 176.533C1284.4 179.2 1291.2 182.933 1300.8 192.533C1314.4 206.133 1320 220.4 1320 241.2C1320 261.2 1315.2 274.533 1303.47 287.6C1287.6 305.2 1266.53 311.467 1240.93 306C1212 299.867 1192 274.4 1192 243.467C1192 222 1198.8 205.2 1212.13 192.8C1228.4 177.733 1250 171.867 1272.13 176.533Z" fill="white"/>
<path d="M1589.33 103.6C1565.2 106.133 1541.2 116.267 1523.47 131.467C1518.4 135.867 1515.87 137.067 1516.13 134.933C1516.27 134.4 1516.27 128.133 1516.13 120.933L1516 108H1476.67H1437.33V285.333V462.667H1477.33H1517.33V408C1517.33 377.867 1517.73 353.333 1518.4 353.333C1518.93 353.333 1522.67 355.867 1526.67 358.8C1536.27 366 1548.8 372.267 1562.13 376.4C1627.47 397.067 1693.33 360.933 1716.67 291.6C1726.4 262.267 1726.4 219.467 1716.53 189.6C1703.2 149.2 1673.87 118.8 1638 108.133C1623.2 103.733 1604.4 102 1589.33 103.6ZM1599.6 178C1610.67 181.333 1622.4 190.133 1629.47 200.4C1638.4 213.333 1642 225.333 1642 242C1641.87 262.267 1637.2 274.4 1624 288.4C1610.27 303.067 1595.2 308.933 1574.8 307.6C1556 306.267 1543.87 301.067 1531.87 288.8C1516.13 272.933 1510.27 250.267 1515.33 226C1520.67 200.8 1538.93 182.4 1564.4 176.533C1574.13 174.4 1589.6 174.933 1599.6 178Z" fill="white"/>
<path d="M1726.67 109.2C1726.67 109.867 1750.67 162.133 1780.13 225.333L1833.47 340.133L1803.47 405.067L1773.47 470L1815.6 470.4C1838.8 470.533 1858.27 470.267 1858.8 469.733C1859.47 468.933 1968.27 216.533 2012.8 112.267L2014.67 108H1972.8C1940.53 108 1930.8 108.4 1930.27 109.6C1922.53 129.067 1876.53 241.467 1875.47 243.6C1874.13 246.133 1870.4 238.133 1844.8 177.2L1815.47 108H1771.07C1745.2 108 1726.67 108.533 1726.67 109.2Z" fill="white"/>
</svg>
